<svg width="158" height="37" viewBox="0 0 158 37" fill="none" xmlns="http://www.w3.org/2000/svg">
<rect x="98" width="60" height="37" rx="18.5" fill="white"/>
<path d="M12.3878 10.4545V25H10.044L3.19034 15.0923H3.0696V25H0.434659V10.4545H2.79261L9.6392 20.3693H9.76705V10.4545H12.3878ZM22.2589 25V10.4545H31.7191V12.6634H24.8938V16.6122H31.229V18.821H24.8938V22.7912H31.7759V25H22.2589ZM43.609 10.4545L46.8121 15.7812H46.9258L50.1431 10.4545H53.1474L48.6658 17.7273L53.2184 25H50.1644L46.9258 19.7088H46.8121L43.5735 25H40.5337L45.1289 17.7273L40.5906 10.4545H43.609ZM71.3849 10.4545H74.0199V19.9574C74.0199 20.9991 73.7737 21.9152 73.2812 22.706C72.7936 23.4967 72.107 24.1146 71.2216 24.5597C70.3362 25 69.3016 25.2202 68.1179 25.2202C66.9295 25.2202 65.8925 25 65.0071 24.5597C64.1217 24.1146 63.4351 23.4967 62.9474 22.706C62.4598 21.9152 62.2159 20.9991 62.2159 19.9574V10.4545H64.8509V19.7372C64.8509 20.3433 64.9834 20.883 65.2486 21.3565C65.5185 21.83 65.8973 22.2017 66.3849 22.4716C66.8726 22.7367 67.4503 22.8693 68.1179 22.8693C68.7855 22.8693 69.3632 22.7367 69.8509 22.4716C70.3433 22.2017 70.7221 21.83 70.9872 21.3565C71.2524 20.883 71.3849 20.3433 71.3849 19.7372V10.4545ZM91.7887 14.4531C91.7224 13.8329 91.4431 13.3499 90.9506 13.0043C90.463 12.6586 89.8285 12.4858 89.0472 12.4858C88.498 12.4858 88.0269 12.5687 87.6339 12.7344C87.2409 12.9001 86.9402 13.125 86.7319 13.4091C86.5236 13.6932 86.417 14.0175 86.4123 14.3821C86.4123 14.6851 86.4809 14.9479 86.6183 15.1705C86.7603 15.393 86.9521 15.5824 87.1935 15.7386C87.435 15.8902 87.7025 16.018 87.9961 16.1222C88.2897 16.2263 88.5856 16.3139 88.8839 16.3849L90.2475 16.7259C90.7968 16.8537 91.3247 17.0265 91.8313 17.2443C92.3427 17.4621 92.7996 17.7367 93.2021 18.0682C93.6093 18.3996 93.9312 18.7997 94.168 19.2685C94.4047 19.7372 94.5231 20.2865 94.5231 20.9162C94.5231 21.7685 94.3053 22.5189 93.8697 23.1676C93.4341 23.8116 92.8043 24.3158 91.9805 24.6804C91.1613 25.0402 90.1694 25.2202 89.0046 25.2202C87.873 25.2202 86.8905 25.045 86.0572 24.6946C85.2286 24.3442 84.5799 23.8329 84.1112 23.1605C83.6471 22.4882 83.3962 21.669 83.3583 20.7031H85.9506C85.9885 21.2098 86.1448 21.6312 86.4194 21.9673C86.694 22.3035 87.0515 22.5545 87.4918 22.7202C87.9369 22.8859 88.4341 22.9688 88.9833 22.9688C89.5562 22.9688 90.0581 22.8835 90.489 22.7131C90.9246 22.5379 91.2655 22.2964 91.5117 21.9886C91.7579 21.6761 91.8834 21.3116 91.8881 20.8949C91.8834 20.5161 91.7721 20.2036 91.5543 19.9574C91.3365 19.7064 91.0311 19.4981 90.6381 19.3324C90.2499 19.1619 89.7953 19.0104 89.2745 18.8778L87.6197 18.4517C86.4218 18.1439 85.4748 17.6776 84.7788 17.0526C84.0875 16.4228 83.7418 15.5871 83.7418 14.5455C83.7418 13.6884 83.9738 12.938 84.4379 12.294C84.9066 11.6501 85.5434 11.1506 86.3484 10.7955C87.1533 10.4356 88.0647 10.2557 89.0827 10.2557C90.1149 10.2557 91.0193 10.4356 91.7958 10.7955C92.5771 11.1506 93.1902 11.6454 93.6353 12.2798C94.0804 12.9096 94.31 13.634 94.3242 14.4531H91.7887Z" fill="white"/>
<path d="M103.872 25V10.4545H109.327C110.444 10.4545 111.382 10.6629 112.139 11.0795C112.902 11.4962 113.477 12.0691 113.865 12.7983C114.258 13.5227 114.455 14.3466 114.455 15.2699C114.455 16.2027 114.258 17.0312 113.865 17.7557C113.472 18.4801 112.892 19.0507 112.125 19.4673C111.358 19.8793 110.413 20.0852 109.291 20.0852H105.676V17.919H108.936C109.589 17.919 110.125 17.8054 110.541 17.5781C110.958 17.3509 111.266 17.0384 111.464 16.6406C111.668 16.2429 111.77 15.786 111.77 15.2699C111.77 14.7538 111.668 14.2992 111.464 13.9062C111.266 13.5133 110.955 13.2079 110.534 12.9901C110.117 12.7675 109.58 12.6562 108.922 12.6562H106.507V25H103.872ZM123.99 25H121.178L126.298 10.4545H129.551L134.679 25H131.866L127.982 13.4375H127.868L123.99 25ZM124.082 19.2969H131.753V21.4134H124.082V19.2969ZM141.116 10.4545H144.092L147.65 16.8892H147.792L151.35 10.4545H154.326L149.035 19.5739V25H146.407V19.5739L141.116 10.4545Z" fill="black"/>
</svg>